REM DIRINDEX 1\2,1\3,1\4,1\5
REM DIRNAME cjc005,folder01,folder02,folder03,folder04
TITLE ""
FILE "P1Q_t_0590-0599.mp3" MP3
  TRACK 01 AUDIO
    TITLE "3:cjc005_2673"
    INDEX 01 00:00:00
  TRACK 02 AUDIO
    TITLE "0:"
    INDEX 01 00:01:03
  TRACK 03 AUDIO
    TITLE "4:cjc005_2674"
    INDEX 01 00:01:38
  TRACK 04 AUDIO
    TITLE "0:"
    INDEX 01 00:04:01
  TRACK 05 AUDIO
    TITLE "5:cjc005_2675"
    INDEX 01 00:04:27
  TRACK 06 AUDIO
    TITLE "0:"
    INDEX 01 00:07:41
  TRACK 07 AUDIO
    TITLE "3:cjc005_2676"
    INDEX 01 00:08:19
  TRACK 08 AUDIO
    TITLE "0:"
    INDEX 01 00:09:36
  TRACK 09 AUDIO
    TITLE "4:cjc005_2677"
    INDEX 01 00:09:65
  TRACK 10 AUDIO
    TITLE "0:"
    INDEX 01 00:11:11
  TRACK 11 AUDIO
    TITLE "5:cjc005_2678"
    INDEX 01 00:11:35
  TRACK 12 AUDIO
    TITLE "0:"
    INDEX 01 00:14:54
  TRACK 13 AUDIO
    TITLE "3:cjc005_2679"
    INDEX 01 00:15:27
  TRACK 14 AUDIO
    TITLE "0:"
    INDEX 01 00:16:38
  TRACK 15 AUDIO
    TITLE "4:cjc005_2680"
    INDEX 01 00:16:63
  TRACK 16 AUDIO
    TITLE "0:"
    INDEX 01 00:18:13
  TRACK 17 AUDIO
    TITLE "5:cjc005_2681"
    INDEX 01 00:18:33
  TRACK 18 AUDIO
    TITLE "0:"
    INDEX 01 00:21:51
  TRACK 19 AUDIO
    TITLE "3:cjc005_2682"
    INDEX 01 00:22:32
  TRACK 20 AUDIO
    TITLE "0:"
    INDEX 01 00:23:38
  TRACK 21 AUDIO
    TITLE "4:cjc005_2683"
    INDEX 01 00:23:65
  TRACK 22 AUDIO
    TITLE "0:"
    INDEX 01 00:25:21
  TRACK 23 AUDIO
    TITLE "5:cjc005_2684"
    INDEX 01 00:25:45
  TRACK 24 AUDIO
    TITLE "0:"
    INDEX 01 00:29:09
  TRACK 25 AUDIO
    TITLE "3:cjc005_2685"
    INDEX 01 00:29:58
  TRACK 26 AUDIO
    TITLE "0:"
    INDEX 01 00:30:67
  TRACK 27 AUDIO
    TITLE "4:cjc005_2686"
    INDEX 01 00:31:22
  TRACK 28 AUDIO
    TITLE "0:"
    INDEX 01 00:32:43
  TRACK 29 AUDIO
    TITLE "5:cjc005_2687"
    INDEX 01 00:32:66
  TRACK 30 AUDIO
    TITLE "0:"
    INDEX 01 00:36:05
  TRACK 31 AUDIO
    TITLE "3:cjc005_2688"
    INDEX 01 00:36:52
  TRACK 32 AUDIO
    TITLE "0:"
    INDEX 01 00:37:71
  TRACK 33 AUDIO
    TITLE "4:cjc005_2689"
    INDEX 01 00:38:18
  TRACK 34 AUDIO
    TITLE "0:"
    INDEX 01 00:40:21
  TRACK 35 AUDIO
    TITLE "5:cjc005_2690"
    INDEX 01 00:40:44
  TRACK 36 AUDIO
    TITLE "0:"
    INDEX 01 00:44:26
  TRACK 37 AUDIO
    TITLE "3:cjc005_2691"
    INDEX 01 00:45:08
  TRACK 38 AUDIO
    TITLE "0:"
    INDEX 01 00:46:13
  TRACK 39 AUDIO
    TITLE "4:cjc005_2692"
    INDEX 01 00:46:37
  TRACK 40 AUDIO
    TITLE "0:"
    INDEX 01 00:47:70
  TRACK 41 AUDIO
    TITLE "5:cjc005_2693"
    INDEX 01 00:48:18
  TRACK 42 AUDIO
    TITLE "0:"
    INDEX 01 00:51:24
  TRACK 43 AUDIO
    TITLE "3:cjc005_2694"
    INDEX 01 00:52:02
  TRACK 44 AUDIO
    TITLE "0:"
    INDEX 01 00:53:25
  TRACK 45 AUDIO
    TITLE "4:cjc005_2695"
    INDEX 01 00:53:51
  TRACK 46 AUDIO
    TITLE "0:"
    INDEX 01 00:55:14
  TRACK 47 AUDIO
    TITLE "5:cjc005_2696"
    INDEX 01 00:55:38
  TRACK 48 AUDIO
    TITLE "0:"
    INDEX 01 00:58:67
  TRACK 49 AUDIO
    TITLE "3:cjc005_2697"
    INDEX 01 00:59:51
  TRACK 50 AUDIO
    TITLE "0:"
    INDEX 01 01:00:53
  TRACK 51 AUDIO
    TITLE "4:cjc005_2698"
    INDEX 01 01:01:09
  TRACK 52 AUDIO
    TITLE "0:"
    INDEX 01 01:02:38
  TRACK 53 AUDIO
    TITLE "5:cjc005_2699"
    INDEX 01 01:02:63
  TRACK 54 AUDIO
    TITLE "0:"
    INDEX 01 01:06:24
  TRACK 55 AUDIO
    TITLE "3:cjc005_2700"
    INDEX 01 01:07:04
  TRACK 56 AUDIO
    TITLE "0:"
    INDEX 01 01:08:09
  TRACK 57 AUDIO
    TITLE "4:cjc005_2701"
    INDEX 01 01:08:36
  TRACK 58 AUDIO
    TITLE "0:"
    INDEX 01 01:10:02
  TRACK 59 AUDIO
    TITLE "5:cjc005_2702"
    INDEX 01 01:10:26
  TRACK 60 AUDIO
    TITLE "0:"
    INDEX 01 01:14:25
